<svg width="50" height="51" viewBox="0 0 50 51" fill="none" xmlns="http://www.w3.org/2000/svg">
<path d="M35.8287 15.7243C35.8204 15.7079 35.8066 15.6951 35.7898 15.6881C33.8468 14.784 31.7965 14.1393 29.69 13.7701C29.6709 13.7665 29.6511 13.7691 29.6335 13.7776C29.6159 13.786 29.6014 13.7999 29.592 13.8172C29.3128 14.3311 29.0594 14.859 28.8327 15.3988C26.562 15.0493 24.2524 15.0493 21.9817 15.3988C21.7535 14.8576 21.496 14.3296 21.2104 13.8172C21.2006 13.8003 21.186 13.7867 21.1685 13.7783C21.151 13.7699 21.1314 13.7671 21.1123 13.7701C19.0057 14.1385 16.9552 14.7833 15.0125 15.6881C14.9959 15.6953 14.9818 15.7075 14.9723 15.7231C11.0874 21.6072 10.0231 27.3466 10.5452 33.0149C10.5467 33.0288 10.5509 33.0423 10.5576 33.0545C10.5643 33.0667 10.5733 33.0774 10.5842 33.086C12.8464 34.7847 15.3767 36.0814 18.0671 36.9207C18.086 36.9265 18.1062 36.9262 18.125 36.9199C18.1438 36.9137 18.1603 36.9018 18.1722 36.8857C18.75 36.0883 19.262 35.244 19.703 34.3612C19.7091 34.3491 19.7125 34.3358 19.7132 34.3222C19.7138 34.3087 19.7116 34.2951 19.7067 34.2825C19.7018 34.2698 19.6943 34.2584 19.6847 34.2489C19.6751 34.2394 19.6637 34.2321 19.6511 34.2274C18.8437 33.9141 18.062 33.5364 17.3134 33.0979C17.2998 33.0898 17.2884 33.0784 17.2802 33.0647C17.272 33.0511 17.2672 33.0356 17.2662 33.0196C17.2653 33.0037 17.2683 32.9877 17.2748 32.9732C17.2814 32.9586 17.2915 32.946 17.304 32.9363C17.4611 32.8169 17.6183 32.6928 17.7682 32.5674C17.7816 32.5563 17.7977 32.5491 17.8148 32.5468C17.8319 32.5445 17.8493 32.547 17.8651 32.5542C22.7693 34.8242 28.0788 34.8242 32.9251 32.5542C32.9408 32.5466 32.9584 32.5436 32.9758 32.5458C32.9932 32.5479 33.0096 32.555 33.0231 32.5662C33.1731 32.6916 33.3303 32.8169 33.4885 32.9363C33.5011 32.9459 33.5112 32.9585 33.5179 32.9729C33.5246 32.9874 33.5277 33.0034 33.5269 33.0193C33.5261 33.0353 33.5214 33.0508 33.5133 33.0645C33.5051 33.0782 33.4938 33.0897 33.4803 33.0979C32.7334 33.5401 31.951 33.9176 31.1415 34.2262C31.1289 34.2311 31.1175 34.2386 31.108 34.2482C31.0985 34.2578 31.0911 34.2694 31.0863 34.2821C31.0814 34.2949 31.0793 34.3085 31.0801 34.3221C31.0808 34.3358 31.0844 34.3491 31.0905 34.3612C31.5389 35.239 32.0501 36.0824 32.6202 36.8843C32.6318 36.9008 32.6481 36.9131 32.667 36.9196C32.6859 36.9261 32.7063 36.9264 32.7253 36.9205C35.4205 36.0841 37.9552 34.7873 40.2202 33.086C40.2313 33.0778 40.2405 33.0674 40.2472 33.0553C40.2539 33.0433 40.258 33.0299 40.2592 33.0161C40.8843 26.4629 39.2128 20.7705 35.8287 15.7243ZM20.4354 29.5635C18.9589 29.5635 17.7423 28.1892 17.7423 26.5015C17.7423 24.8138 18.9353 23.4395 20.4354 23.4395C21.9473 23.4395 23.1521 24.8257 23.1285 26.5014C23.1285 28.1892 21.9355 29.5635 20.4354 29.5635ZM30.3928 29.5635C28.9163 29.5635 27.6997 28.1892 27.6997 26.5015C27.6997 24.8138 28.8928 23.4395 30.3928 23.4395C31.9048 23.4395 33.1096 24.8257 33.086 26.5014C33.086 28.1892 31.9048 29.5635 30.3928 29.5635Z" fill="black"/>
<rect x="1.51231" y="0.809917" width="46.9752" height="48.595" rx="15.3884" stroke="black" stroke-width="1.61983"/>
</svg>
