<svg width="49" height="51" viewBox="0 0 49 51" fill="none" xmlns="http://www.w3.org/2000/svg">
<path d="M38.471 16.4613C37.4587 16.9188 36.3693 17.2273 35.2261 17.3654C36.3933 16.6551 37.2882 15.53 37.7103 14.1879C36.6186 14.8465 35.41 15.3243 34.1227 15.5823C33.0925 14.4663 31.624 13.7686 29.9991 13.7686C26.8794 13.7686 24.35 16.3398 24.35 19.5116C24.35 19.961 24.3997 20.3991 24.4964 20.8202C19.801 20.5804 15.6377 18.2944 12.8512 14.8198C12.3648 15.6675 12.0865 16.654 12.0865 17.7075C12.0865 19.6996 13.0837 21.4577 14.5996 22.4873C13.674 22.4572 12.8025 22.1987 12.0406 21.7685C12.0401 21.7924 12.0401 21.8168 12.0401 21.8413C12.0401 24.6233 13.9876 26.9439 16.5723 27.4723C16.0983 27.603 15.5991 27.6735 15.0837 27.6735C14.7193 27.6735 14.3654 27.6377 14.0205 27.57C14.74 29.8515 16.8261 31.5124 19.2979 31.5584C17.3644 33.0988 14.9289 34.0171 12.2815 34.0171C11.826 34.0171 11.376 33.9898 10.9338 33.9364C13.4347 35.5666 16.404 36.5167 19.5942 36.5167C29.9862 36.5167 35.6683 27.7661 35.6683 20.1769C35.6683 19.9281 35.6633 19.6797 35.6526 19.4331C36.7561 18.6251 37.7142 17.6131 38.471 16.4613Z" fill="black"/>
<rect x="1.21495" y="0.809917" width="46.9752" height="48.595" rx="15.3884" stroke="black" stroke-width="1.61983"/>
</svg>
